<svg width="20" height="20" viewBox="0 0 20 20" fill="none" xmlns="http://www.w3.org/2000/svg">
<path d="M9.69066 1.83516C14.0986 1.83516 17.6848 5.42135 17.6848 9.82933C17.6848 14.2373 14.0986 17.8235 9.69066 17.8235C5.28267 17.8235 1.69649 14.2373 1.69649 9.82933C1.69649 5.42135 5.28267 1.83516 9.69066 1.83516ZM9.69066 0.236328C4.39292 0.236328 0.0976562 4.53159 0.0976562 9.82933C0.0976562 15.1271 4.39292 19.4223 9.69066 19.4223C14.9884 19.4223 19.2837 15.1271 19.2837 9.82933C19.2837 4.53159 14.9884 0.236328 9.69066 0.236328ZM12.8883 11.4945C12.8883 9.77977 11.104 9.30251 9.73622 8.65978C8.90563 8.2281 9.01035 7.19765 10.2007 7.1281C10.861 7.08813 11.5397 7.28399 12.1537 7.49983L12.443 6.18319C11.718 5.96255 11.0689 5.86182 10.4901 5.84663V5.03283H9.69066V5.88581C8.13579 6.09925 7.3052 7.07454 7.3052 8.16414C7.3052 10.1131 9.58114 10.4105 10.3254 10.7567C11.3407 11.2107 11.1528 12.1556 10.2343 12.3643C9.43724 12.5449 8.42038 12.23 7.65614 11.9326L7.29241 13.2468C8.00709 13.6162 8.86326 13.8128 9.69066 13.828V14.6258H10.4901V13.784C11.8147 13.5986 12.8899 12.8679 12.8883 11.4945Z" fill="#254882"/>
</svg>
