<svg width="18" height="20" viewBox="0 0 18 20" fill="none" xmlns="http://www.w3.org/2000/svg">
<path d="M9.09436 2.14881C11.4646 3.93791 14.2562 4.55026 16.2188 4.74692C15.6927 10.3844 12.308 14.814 9.09436 17.2618C5.87991 14.814 2.49518 10.3844 1.96996 4.74612C3.93173 4.55026 6.72409 3.93791 9.09436 2.14881ZM9.09436 0.0351562C6.69931 2.42941 3.10993 3.23282 0.300781 3.23282C0.300781 10.0942 4.35143 16.101 9.09436 19.2212C13.8365 16.101 17.8879 10.0942 17.8879 3.23282C15.078 3.23282 11.4878 2.42941 9.09436 0.0351562ZM12.1273 6.43049L8.62511 10.0079L6.8544 8.31072L5.86552 9.3012L8.62511 11.9888L13.117 7.42017L12.1273 6.43049Z" fill="#254882"/>
</svg>
