<svg width="20" height="20" viewBox="0 0 20 20" fill="none" xmlns="http://www.w3.org/2000/svg">
<path d="M19.3852 9.62816C19.3852 14.9259 15.09 19.2212 9.79222 19.2212C4.49448 19.2212 0.199219 14.9259 0.199219 9.62816H1.79805C1.79805 14.0361 5.38424 17.6223 9.79222 17.6223C14.2002 17.6223 17.7864 14.0361 17.7864 9.62816C17.7864 5.22017 14.2002 1.63399 9.79222 1.63399C7.57224 1.63399 5.5657 2.54612 4.11716 4.01385L5.76476 5.66145L0.199219 6.74386L1.24246 1.13755L2.98439 2.88028C4.72072 1.12476 7.12696 0.0351562 9.79222 0.0351562C15.09 0.0351562 19.3852 4.33042 19.3852 9.62816ZM8.9928 4.83166V11.227H14.5887V9.62816H10.5916V4.83166H8.9928Z" fill="#254882"/>
</svg>
