<svg width="14" height="14" viewBox="0 0 14 14" fill="none" xmlns="http://www.w3.org/2000/svg">
<path fill-rule="evenodd" clip-rule="evenodd" d="M5.6662 9.64538L3.40511 7.23355L4.1117 6.47985L6.37279 8.89168L5.6662 9.64538Z" fill="#4DD19A"/>
<path fill-rule="evenodd" clip-rule="evenodd" d="M10.1884 4.82172L5.6662 9.64538L4.95961 8.89168L9.48179 4.06802L10.1884 4.82172Z" fill="#4DD19A"/>
<path fill-rule="evenodd" clip-rule="evenodd" d="M12.2387 7.27033C12.2387 4.39679 9.87992 1.94089 6.8426 1.94089C3.80528 1.94089 1.44654 4.39679 1.44654 7.27033C1.44654 10.1439 3.80528 12.5998 6.8426 12.5998C9.87992 12.5998 12.2387 10.1439 12.2387 7.27033ZM13.2379 7.27033C13.2379 3.74456 10.3703 0.875 6.8426 0.875C3.31493 0.875 0.447266 3.74456 0.447266 7.27033C0.447266 10.7961 3.31493 13.6657 6.8426 13.6657C10.3703 13.6657 13.2379 10.7961 13.2379 7.27033Z" fill="#4DD19A"/>
</svg>
