<svg width="40" height="40" viewBox="0 0 40 40" fill="none" xmlns="http://www.w3.org/2000/svg">
<rect width="40" height="40" rx="10" fill="white"/>
<path d="M21.2698 31.2495H18.7498C18.0498 31.2495 17.4198 30.9495 16.9998 30.4395C16.6298 29.9795 16.4898 29.3895 16.6198 28.8295L17.0298 27.0195C17.1098 26.6795 17.4098 26.4395 17.7598 26.4395H22.2598C22.6098 26.4395 22.9098 26.6795 22.9898 27.0195L23.3998 28.8295C23.5298 29.4295 23.4098 30.0095 23.0398 30.4695C22.6298 30.9595 21.9898 31.2495 21.2698 31.2495ZM18.3598 27.9196L18.0798 29.1495C18.0498 29.2995 18.1098 29.4195 18.1698 29.4895C18.2998 29.6495 18.5098 29.7395 18.7498 29.7395H21.2698C21.5298 29.7395 21.7498 29.6595 21.8698 29.5095C21.9498 29.4095 21.9698 29.2895 21.9398 29.1395L21.6598 27.9095H18.3598V27.9196Z" fill="#292D32"/>
<path d="M22.2595 27.9208C22.0495 27.9208 21.8495 27.8408 21.6995 27.6708C21.4295 27.3608 21.4495 26.8907 21.7595 26.6107L23.4895 25.0707C24.1795 24.4607 24.1495 24.3108 23.6395 23.6708L20.5895 19.8007C20.4195 19.5907 20.2195 19.4707 20.0095 19.4707C19.7995 19.4707 19.5995 19.5907 19.4295 19.8007L16.3795 23.6708C15.8395 24.3608 15.8495 24.5108 16.5095 25.0508L18.2595 26.6107C18.5695 26.8807 18.5995 27.3608 18.3195 27.6708C18.0395 27.9808 17.5695 28.0107 17.2595 27.7307L15.5295 26.1907C14.2695 25.1607 14.1595 24.0607 15.1995 22.7407L18.2495 18.8707C18.6995 18.3007 19.3395 17.9707 20.0095 17.9707C20.6795 17.9707 21.3195 18.3007 21.7695 18.8707L24.8195 22.7407C25.8495 24.0407 25.7495 25.0807 24.4895 26.1907L22.7595 27.7307C22.6095 27.8607 22.4295 27.9208 22.2595 27.9208Z" fill="#292D32"/>
<path d="M20.0098 22.3992C19.5998 22.3992 19.2598 22.0592 19.2598 21.6492V19.1191C19.2598 18.7091 19.5998 18.3691 20.0098 18.3691C20.4198 18.3691 20.7598 18.7091 20.7598 19.1191V21.6492C20.7598 22.0692 20.4198 22.3992 20.0098 22.3992Z" fill="#292D32"/>
<path d="M20.5195 13.75H19.5195C18.5595 13.75 17.7695 12.96 17.7695 12V11C17.7695 10.04 18.5595 9.25 19.5195 9.25H20.5195C21.4795 9.25 22.2695 10.04 22.2695 11V12C22.2695 12.96 21.4895 13.75 20.5195 13.75ZM19.5195 10.75C19.3795 10.75 19.2695 10.86 19.2695 11V12C19.2695 12.14 19.3795 12.25 19.5195 12.25H20.5195C20.6595 12.25 20.7695 12.14 20.7695 12V11C20.7695 10.86 20.6595 10.75 20.5195 10.75H19.5195Z" fill="#292D32"/>
<path d="M12.2695 22.92H11.2695C10.3095 22.92 9.51953 22.13 9.51953 21.17V20.17C9.51953 19.21 10.3095 18.4199 11.2695 18.4199H12.2695C13.2295 18.4199 14.0195 19.21 14.0195 20.17V21.17C14.0195 22.13 13.2295 22.92 12.2695 22.92ZM11.2695 19.9199C11.1295 19.9199 11.0195 20.03 11.0195 20.17V21.17C11.0195 21.31 11.1295 21.42 11.2695 21.42H12.2695C12.4095 21.42 12.5195 21.31 12.5195 21.17V20.17C12.5195 20.03 12.4095 19.9199 12.2695 19.9199H11.2695Z" fill="#292D32"/>
<path d="M28.7305 22.92H27.7305C26.7705 22.92 25.9805 22.13 25.9805 21.17V20.17C25.9805 19.21 26.7705 18.4199 27.7305 18.4199H28.7305C29.6905 18.4199 30.4805 19.21 30.4805 20.17V21.17C30.4805 22.13 29.7005 22.92 28.7305 22.92ZM27.7305 19.9199C27.5905 19.9199 27.4805 20.03 27.4805 20.17V21.17C27.4805 21.31 27.5905 21.42 27.7305 21.42H28.7305C28.8705 21.42 28.9805 21.31 28.9805 21.17V20.17C28.9805 20.03 28.8705 19.9199 28.7305 19.9199H27.7305Z" fill="#292D32"/>
<path d="M11.75 19.9203C11.34 19.9203 11 19.5803 11 19.1703C11 14.9003 14.2 11.3103 18.44 10.8103C18.85 10.7703 19.22 11.0603 19.27 11.4703C19.32 11.8803 19.02 12.2503 18.61 12.3003C15.13 12.7103 12.5 15.6603 12.5 19.1703C12.5 19.5803 12.16 19.9203 11.75 19.9203Z" fill="#292D32"/>
<path d="M28.249 19.9199C27.839 19.9199 27.499 19.5799 27.499 19.1699C27.499 15.6799 24.889 12.7299 21.429 12.3099C21.019 12.2599 20.729 11.8899 20.779 11.4799C20.829 11.0699 21.199 10.7699 21.619 10.8299C25.829 11.3399 29.009 14.9299 29.009 19.1799C28.999 19.5799 28.669 19.9199 28.249 19.9199Z" fill="#292D32"/>
</svg>
