<svg width="18" height="13" viewBox="0 0 18 13" fill="none" xmlns="http://www.w3.org/2000/svg">
<mask id="mask0_591_5043" style="mask-type:luminance" maskUnits="userSpaceOnUse" x="6" y="0" width="12" height="13">
<path d="M6 0H17.5756V13H6V0Z" fill="white"/>
</mask>
<g mask="url(#mask0_591_5043)">
<path fill-rule="evenodd" clip-rule="evenodd" d="M16.7989 7.87597L8.39608 12.7566C7.80252 13.0758 7.11739 13.0303 6.56941 12.5741C6.06721 12.1181 5.88448 11.4338 6.11279 10.7953C6.61519 9.42688 6.88908 7.96713 6.88908 6.50759C6.88908 5.04804 6.61519 3.58829 6.11279 2.2199C5.88448 1.58139 6.06721 0.89709 6.56941 0.441099C7.07181 -0.0150998 7.80252 -0.0606781 8.39608 0.258578L16.7989 5.1392C17.3013 5.41287 17.5754 5.91465 17.5754 6.50759C17.5754 7.10052 17.3013 7.6023 16.7989 7.87597Z" fill="#64C969"/>
</g>
<mask id="mask1_591_5043" style="mask-type:luminance" maskUnits="userSpaceOnUse" x="0" y="4" width="6" height="6">
<path d="M0 4H5.31372V9.32787H0V4Z" fill="white"/>
</mask>
<g mask="url(#mask1_591_5043)">
<path d="M5.29728 6.67101C5.29728 6.75759 5.29311 6.84417 5.28458 6.93033C5.27605 7.01649 5.26335 7.10223 5.24649 7.18715C5.22943 7.27206 5.20841 7.35614 5.18323 7.43897C5.15804 7.52201 5.12891 7.60339 5.09561 7.68351C5.06252 7.76343 5.02547 7.84168 4.98447 7.91806C4.94368 7.99465 4.89914 8.06874 4.85086 8.14075C4.80278 8.21297 4.75117 8.28248 4.69602 8.34929C4.64107 8.4163 4.5828 8.4804 4.52161 8.5418C4.46022 8.60299 4.39591 8.66105 4.32889 8.716C4.26188 8.77115 4.19237 8.82255 4.12015 8.87084C4.04793 8.91891 3.97363 8.96345 3.89725 9.00424C3.82067 9.04503 3.74241 9.08208 3.66229 9.11517C3.58216 9.14847 3.50058 9.17761 3.41754 9.20258C3.3345 9.22776 3.25042 9.24878 3.1653 9.26585C3.08017 9.28271 2.99464 9.2954 2.90827 9.30394C2.8219 9.31226 2.73532 9.31663 2.64853 9.31663C2.56196 9.31663 2.47538 9.31226 2.38901 9.30394C2.30264 9.2954 2.21689 9.28271 2.13198 9.26585C2.04686 9.24878 1.96278 9.22776 1.87974 9.20258C1.7967 9.17761 1.71512 9.14847 1.63499 9.11517C1.55486 9.08208 1.47661 9.04503 1.40002 9.00424C1.32343 8.96345 1.24914 8.91891 1.17713 8.87084C1.10491 8.82255 1.0354 8.77115 0.968382 8.716C0.901159 8.66105 0.837058 8.60299 0.775663 8.5418C0.714267 8.4804 0.656202 8.4163 0.60105 8.34929C0.546107 8.28248 0.494493 8.21297 0.446209 8.14075C0.398133 8.06874 0.353596 7.99465 0.312596 7.91806C0.271805 7.84168 0.234759 7.76343 0.20146 7.68351C0.168369 7.60339 0.139232 7.52201 0.11405 7.43897C0.0888672 7.35614 0.067639 7.27206 0.0507813 7.18715C0.0339236 7.10223 0.0212282 7.01649 0.0126953 6.93033C0.00416241 6.84417 0 6.75759 0 6.67101C0 6.58443 0.00416241 6.49785 0.0126953 6.41169C0.0212282 6.32553 0.0339236 6.23979 0.0507813 6.15487C0.067639 6.06996 0.0888672 5.98588 0.11405 5.90305C0.139232 5.82022 0.168369 5.73863 0.20146 5.65872C0.234759 5.57859 0.271805 5.50034 0.312596 5.42396C0.353596 5.34758 0.398133 5.27328 0.446209 5.20127C0.494493 5.12926 0.546107 5.05975 0.60105 4.99273C0.656202 4.92572 0.714267 4.86162 0.775663 4.80043C0.837058 4.73903 0.901159 4.68097 0.968382 4.62602C1.0354 4.57108 1.10491 4.51947 1.17713 4.47139C1.24914 4.42311 1.32343 4.37878 1.40002 4.33778C1.47661 4.29699 1.55486 4.25994 1.63499 4.22685C1.71512 4.19376 1.7967 4.16462 1.87974 4.13944C1.96278 4.11426 2.04686 4.09324 2.13198 4.07638C2.21689 4.05931 2.30264 4.04662 2.38901 4.03829C2.47538 4.02976 2.56196 4.02539 2.64853 4.02539C2.73532 4.02539 2.8219 4.02976 2.90827 4.03829C2.99464 4.04662 3.08017 4.05931 3.1653 4.07638C3.25042 4.09324 3.3345 4.11426 3.41754 4.13944C3.50058 4.16462 3.58216 4.19376 3.66229 4.22685C3.74241 4.25994 3.82067 4.29699 3.89725 4.33778C3.97363 4.37878 4.04793 4.42311 4.12015 4.47139C4.19237 4.51947 4.26188 4.57108 4.32889 4.62602C4.39591 4.68097 4.46022 4.73903 4.52161 4.80043C4.5828 4.86162 4.64107 4.92572 4.69602 4.99273C4.75117 5.05975 4.80278 5.12926 4.85086 5.20127C4.89914 5.27328 4.94368 5.34758 4.98447 5.42396C5.02547 5.50034 5.06252 5.57859 5.09561 5.65872C5.12891 5.73863 5.15804 5.82022 5.18323 5.90305C5.20841 5.98588 5.22943 6.06996 5.24649 6.15487C5.26335 6.23979 5.27605 6.32553 5.28458 6.41169C5.29311 6.49785 5.29728 6.58443 5.29728 6.67101Z" fill="#64C969"/>
</g>
</svg>
