<svg viewBox="0 0 510 125" xmlns="http://www.w3.org/2000/svg" class="csulogo">
<g fill-rule="evenodd" class="stacked"><path d="m152.4 57h9.4c4.2 0 6.4-2.1 6.4-6v-4.5h-6.2v4.2c0 .4-.1.8-1 .8h-7.9c-.8 0-1-.4-1-.8v-16.4c0-.4.1-.8 1-.8h7.9c.9 0 1 .4 1 .8v4.2h6.2v-4.5c0-3.9-2.3-6-6.4-6h-9.4c-4.2 0-6.4 2.1-6.4 6v17c0 3.9 2.3 6 6.4 6" fill="#fefefe"></path><path d="m180.7 57h9.9c4.2 0 6.4-2.1 6.4-6v-17c0-3.9-2.3-6-6.4-6h-9.9c-4.2 0-6.4 2.1-6.4 6v17c-.1 3.9 2.2 6 6.4 6m-.3-6.3v-16.4c0-.4.1-.8 1-.8h8.4c.9 0 1 .4 1 .8v16.4c0 .4-.1.8-1 .8h-8.4c-.9 0-1-.4-1-.8" fill="#fefefe"></path><path d="m223 51.5h-13.6v-23.5h-6.4v29h20z" fill="#fefefe"></path><path d="m251.2 51v-17c0-3.9-2.3-6-6.5-6h-10.1c-4.2 0-6.5 2.1-6.5 6v17c0 3.9 2.3 6 6.5 6h10.1c4.1 0 6.5-2.1 6.5-6m-6.3-16.7v16.4c0 .4-.1.8-1 .8h-8.6c-.8 0-1-.4-1-.8v-16.4c0-.4.1-.8 1-.8h8.6c.9 0 1 .4 1 .8" fill="#fefefe"></path><path d="m275.4 46c2.8-.7 4.3-2.7 4.3-5.8v-6.2c0-3.9-2.3-6-6.5-6h-15.8v29h6.3v-10.7h5.1l5.5 10.7h6.9zm-11.8-12.6h8.8c.8 0 1 .4 1 .8v5.9c0 .4-.1.8-1 .8h-8.8z" fill="#fefefe"></path><path d="m293.9 50.1h9.9l2.3 6.9h6.9l-10.6-29h-6.9l-10.5 29h6.6zm1.8-5.4 3.1-9.4 3.1 9.4z" fill="#fefefe"></path><path d="m333.1 28h-16.1v29h16.1c4.2 0 6.5-2.1 6.5-6v-17c.1-3.9-2.2-6-6.5-6zm-9.8 5.5h9.1c.8 0 1 .4 1 .8v16.4c0 .4-.1.8-1 .8h-9.1z" fill="#fefefe"></path><path d="m352.2 57h10c4.2 0 6.5-2.1 6.5-6v-17c0-3.9-2.3-6-6.5-6h-10c-4.2 0-6.5 2.1-6.5 6v17c-.1 3.9 2.3 6 6.5 6m-.3-6.3v-16.4c0-.4.1-.8 1-.8h8.6c.9 0 1 .4 1 .8v16.4c0 .4-.1.8-1 .8h-8.6c-.8 0-1-.4-1-.8" fill="#fefefe"></path><path d="m400.4 40.4-7.9-1.6c-1.4-.3-1.5-.6-1.5-1.3v-3.2c0-.4.1-.9 1-.9h7.3c.8 0 1 .3 1 .9v3.4h6.2v-3.7c0-3.9-2.3-6-6.5-6h-8.7c-4.2 0-6.5 2.1-6.5 6v4.1c0 4.2 3.2 5.5 6.6 6.2l7.9 1.6c1.4.3 1.5.5 1.5 1.3v3.6c0 .5-.2.9-1 .9h-7.9c-.8 0-1-.3-1-.9v-3.7h-6.2v3.9c0 3.9 2.3 6 6.5 6h9.3c4.2 0 6.5-2.1 6.5-6v-4.5c-0-4.2-3.2-5.4-6.6-6.1" fill="#fefefe"></path><path d="m435 28h-24v5.4h8.7v23.6h6.6v-23.6h8.7z" fill="#fefefe"></path><path d="m444.5 28-10.5 29h6.6l2.3-6.9h9.9l2.3 6.9h6.9l-10.6-29zm6.5 16.7h-6.3l3.1-9.4z" fill="#fefefe"></path><path d="m461 33.4h8.7v23.6h6.6v-23.6h8.7v-5.4h-24z" fill="#fefefe"></path><path d="m489 28v29h20v-5.5h-13.9v-6.6h11.4v-5.4h-11.4v-6h13.9v-5.5z" fill="#fefefe"></path><path d="m162.4 92.7c0 .4-.1.8-1 .8h-8.8c-.9 0-1.1-.4-1.1-.8v-22.7h-6.5v23c0 3.9 2.4 6 6.8 6h10.3c4.4 0 6.8-2.1 6.8-6v-23h-6.6v22.7z" fill="#fefefe"></path><path d="m193.8 88.6-12.3-18.6h-6.5v29h6.2v-19.1l12.7 19.1h6.1v-29h-6.2z" fill="#fefefe"></path><path d="m205 99h7v-29h-7z" fill="#fefefe"></path><path d="m230.1 91.3-6.4-21.3h-6.7l9.7 29h6.6l9.7-29h-6.5z" fill="#fefefe"></path><path d="m249 99h20v-5.5h-13.9v-6.6h11.4v-5.4h-11.4v-6h13.9v-5.5h-20z" fill="#fefefe"></path><path d="m296.2 82.3v-6.3c0-3.9-2.3-6-6.5-6h-15.7v29h6.2v-10.7h5l5.4 10.7h6.8l-5.6-11c2.9-.7 4.4-2.7 4.4-5.7zm-16-6.9h8.7c.8 0 1 .4 1 .8v5.9c0 .4-.1.8-1 .8h-8.7z" fill="#fefefe"></path><path d="m317.5 82.4-7.8-1.6c-1.4-.3-1.5-.6-1.5-1.3v-3.2c0-.4.1-.9 1-.9h7.3c.8 0 1 .3 1 .9v3.4h6.1v-3.7c0-3.9-2.3-6-6.5-6h-8.7c-4.2 0-6.5 2.1-6.5 6v4.1c0 4.2 3.1 5.5 6.5 6.2l7.8 1.6c1.4.3 1.5.5 1.5 1.3v3.6c0 .5-.2.9-1 .9h-7.9c-.8 0-1-.3-1-.9v-3.7h-6.2v3.9c0 3.9 2.3 6 6.5 6h9.2c4.2 0 6.5-2.1 6.5-6v-4.5c.2-4.2-2.9-5.4-6.3-6.1" fill="#fefefe"></path><path d="m331 99h7v-29h-7z" fill="#fefefe"></path><path d="m341 75.4h8.7v23.6h6.6v-23.6h8.7v-5.4h-24z" fill="#fefefe"></path><path d="m379.5 82.6-6.6-12.6h-6.9l10.4 18.8v10.2h6.2v-10.2l10.4-18.8h-6.8z" fill="#fefefe"></path></g><g class="ram"><path d="m62.5 0c-34.4 0-62.5 28-62.5 62.5s28.1 62.5 62.5 62.5c34.5 0 62.5-28 62.5-62.5s-28-62.5-62.5-62.5" fill="#c8c372"></path><path d="m62.5 2.6c-33 0-59.9 26.9-59.9 59.9 0 33.1 26.9 59.9 59.9 59.9s59.9-26.9 59.9-59.9-26.8-59.9-59.9-59.9" fill="#1e4d2b"></path><path d="m37.3 50.5c-2.2.4-2.6 3.5-.9 5.4-1.5-.2-3.7-2.2-9-.6-1.8.6-3.9 1.3-4.2 3.6-.2 1.7 2.1 3.6 3.6 4.7 1.5 1.2 4 1.3 5.2 3.2 1.1 1.6 1.9 4.1 2.2 6.3.5 4.3.4 9.7 3.4 13.2.6-2.1-1-6.8-1-13 0-2.3-.9-4.9-2.2-6.6 2.5-.2 2.5.1 2.7-.6.2-.8-.2-1.6-.8-2.3-1.8-2.1-4.3-1-6.6-1.7-1.5-.5-3.8-1.3-3.9-3.4-.1-1.4 4.4-1.7 4.4-1.7 3.6.3 3.2 2.3 5.6 2.5 2 .2 2.9-2 3.5-3.3 1-1.9 2.1-6.3-2-5.7z" fill="#fefefe"></path><path d="m53.1 76.6c1.7-2.5 3.4-8.1 2.4-10.4-1.6-.6-3.6-1.9-4.7-3.7-1.2-1.7-1.9-3.6-3.9-4.2-1.4-.5-2.9-.2-4.1.4-1.8 1.1-2.3 3.6-2.5 5.5-.1 4.1.6 10.1 2.4 13.9 1.1 2.8 3.5 7.5 6.5 11.9-.9-6.9 3-11.5 3.9-13.4zm-5.4-9c-.8-1.4-2.9-1.1-3.8-1.7-1.6-1-1.5-3.2 0-4.5 1.9-1.7 6.8 3.8 5.8 8.2-.6.1-.8-.2-2-2z" fill="#fefefe"></path><path d="m68.8 95.3c-2.1.2-4.3.7-6.1.6-1.8 0-4.1-.4-6.1-.6-.3 0-.6.2-.6.2-1.2 2.6 5.7 4 6.7 3.9 1 0 7.9-1.4 6.7-3.9-.1 0-.3-.2-.6-.2z" fill="#fefefe"></path><path d="m62.7 72.9c-.1 0-.1 0 0 0-2 0-3.1 1.7-4.9 3.6-3.1 3.4-9.5 11.9-4.9 15.9 2.1 1.8 4.8 3 8.5 1.9.9-.6.4-2.5-.1-3.4-1.7-2.3-4.5-1.4-5.2-2.5s-.2-1.9.2-2.5c.6-.8 1.7-.6 2.6-.4 1.6.4 2.7 1 3.6 2v.1-.1c1-1 2.1-1.6 3.6-2 .9-.2 1.9-.4 2.6.4.5.6.9 1.4.2 2.5-.8 1.1-3.4.2-5.2 2.5-.5.9-1.1 2.8-.1 3.4 3.8 1.1 6.4-.1 8.5-1.9 4.7-4-1.7-12.5-4.9-15.9-1.6-1.9-2.7-3.5-4.5-3.6z" fill="#fefefe"></path><path d="m102.4 59c-.3-2.3-2.3-3.1-4.2-3.6-5.3-1.7-7.5.4-9 .6 1.7-1.9 1.3-5.1-.9-5.4-4.1-.6-3 3.8-2 5.8.6 1.3 1.5 3.4 3.5 3.3 2.5-.2 2.1-2.2 5.7-2.5 0 0 4.5.3 4.4 1.7-.2 2.1-2.5 2.9-4 3.4-2.2.7-4.8-.4-6.6 1.7-.6.7-1 1.5-.8 2.3s.3.4 2.8.6c-1.4 1.7-2.2 4.3-2.2 6.6-.1 6.1-1.6 10.9-1 13 3-3.6 2.9-8.9 3.4-13.2.3-2.2 1.1-4.7 2.2-6.3 1.3-1.9 3.6-2 5.2-3.2 1.4-1.2 3.7-3 3.5-4.8z" fill="#fefefe"></path><path d="m82.3 58.7c-1.1-.6-2.7-.9-4-.4-2.1.6-2.7 2.5-3.9 4.2-1.2 1.8-3.1 3-4.7 3.7-1 2.3.7 7.9 2.4 10.4.9 1.9 4.8 6.5 4 13.5 3-4.4 5.5-9.1 6.5-11.9 1.8-3.8 2.6-9.8 2.4-13.9-.4-2-.9-4.6-2.7-5.6zm-1.2 7.2c-.9.6-3 .3-3.8 1.7-1.1 1.9-1.4 2.1-1.9 2-1.1-4.4 3.8-10 5.7-8.2 1.6 1.3 1.6 3.4 0 4.5z" fill="#fefefe"></path><path d="m62.5 5.8c-31.2 0-56.6 25.5-56.6 56.7s25.4 56.7 56.7 56.7c31.2 0 56.6-25.5 56.6-56.7s-25.5-56.7-56.7-56.7zm35.6 95.9c-1.7.7-3.5 1-5.3.2-1.4-.6-2.2-2-2.5-3.5-.3-2.3.9-4.9 2-6.7 1.5-2.5 5-7 9-10 5.7-4.2 9.7-5.4 8.2-6.4-1-.7-6.4 2.3-7.5 2.8-6 3.2-14.4 12.2-15.3 18.9-.8 5.3 5.3 9 9.4 7.6-13.4 11.4-28.3 11.9-33.5 12-5.2-.1-20.2-.6-33.5-12 4.1 1.4 10.2-2.3 9.4-7.6-1-6.7-9.4-15.7-15.4-18.8-1.1-.6-6.5-3.5-7.5-2.8-1.5 1 2.5 2.1 8.2 6.4 4 3 7.4 7.4 9 10 1.1 1.8 2.4 4.5 2.1 6.7-.2 1.5-1.1 2.9-2.5 3.5-1.8.8-3.6.5-5.3-.2-2.7-1-4.9-3.1-6.7-5.6-3.6-4.8-7-10.4-8.8-16.2 1.5 3.4 11.1 17.4 15.3 17.6 4.4.2-4.3-11.4-10.2-16.3-1.4-1.2-3.1-2.6-3.4-4.7-.3-1.6.6-2.6 2.1-2.7 2.4-.1 8.5 3.1 8.6 3-10.7-19.2 5.7-29-1.1-33.2-2.4-1.5-7.4 0-10.1.4 25.2-14.9 29.7 0 37.3 6.8 1.2 1.1 6.5 0 7.6-1.3 1.4-1.6 4-7.5 1-11.3-4.4-5.6-22.7-22.1-39.4-7.5 7.8-13.2 26.7-22.8 43.3-22.4 16.5-.4 35.3 9.2 43.4 22.3-16.7-14.6-35 1.9-39.5 7.5-3 3.8-.4 9.7 1 11.3 1.1 1.3 6.4 2.3 7.6 1.3 7.6-6.8 12-21.7 37.3-6.8-2.7-.4-7.8-1.9-10.1-.4-6.8 4.2 9.6 13.9-1.1 33.2.1.1 6.3-3.1 8.6-3 1.6.1 2.4 1.1 2.1 2.7-.3 2.2-2 3.6-3.4 4.7-5.9 4.9-14.6 16.5-10.2 16.3 4.3-.2 13.9-14.3 15.4-17.6-1.8 5.9-5.3 11.4-8.8 16.2-1.9 2.6-4.1 4.7-6.8 5.6z" fill="#fefefe"></path></g><g class="csu" fill="#fff" transform="translate(5, 0)"><path d="m178.6 25.2h-22.2c-9.8 0-15.3 4.9-15.3 13.9v39.2c0 8.9 5.4 13.9 15.3 13.9h22.2c9.8 0 15.3-4.9 15.3-13.9v-10.5h-14.7v9.8c0 .9-.2 1.9-2.4 1.9h-18.7c-2 0-2.3-.9-2.3-1.9v-37.9c0-1 .3-1.9 2.3-1.9h18.7c2.2 0 2.4 1 2.4 1.9v9.8h14.7v-10.5c-.1-8.9-5.5-13.8-15.3-13.8"></path><path d="m240.4 53.7l-18.4-3.7c-3.3-.7-3.5-1.3-3.5-3.1v-7.5c0-1 .2-2 2.4-2h17.1c1.9 0 2.3.8 2.3 2v7.7h14.5v-8.1c0-8.9-5.4-13.9-15.3-13.9h-20.5c-9.8 0-15.3 4.9-15.3 13.9v9.4c0 9.7 7.4 12.6 15.4 14.2l18.4 3.7c3.2.7 3.5 1.2 3.5 3v8.4c0 1.2-.4 2-2.3 2h-18.5c-1.9 0-2.3-.8-2.3-2v-8.4h-14.5v8.9c0 8.9 5.4 13.9 15.3 13.9h21.7c9.8 0 15.3-4.9 15.3-13.9v-10.3c.1-10.3-7.9-12.7-15.3-14.2"></path><path d="m303.7 25.2v52.4c0 1-.3 1.9-2.3 1.9h-19.6c-2.2 0-2.3-1-2.3-1.9v-52.4h-14.7v53c0 8.9 5.4 13.9 15.3 13.9h23c9.8 0 15.3-4.9 15.3-13.9v-53h-14.7"></path></g></svg>